<mxfile host="Electron" modified="2023-09-19T07:56:07.515Z" agent="Mozilla/5.0 (Windows NT 10.0; Win64; x64) AppleWebKit/537.36 (KHTML, like Gecko) draw.io/21.6.8 Chrome/114.0.5735.289 Electron/25.5.0 Safari/537.36" etag="H8RpOtztTKxTB6lyHHnz" version="21.6.8" type="device">
  <diagram name="第 1 页" id="O-rxJtxfMmLQIQPbdt72">
    <mxGraphModel dx="549" dy="201" grid="1" gridSize="10" guides="1" tooltips="1" connect="1" arrows="1" fold="1" page="1" pageScale="1" pageWidth="827" pageHeight="1169" math="0" shadow="0">
      <root>
        <mxCell id="0" />
        <mxCell id="1" parent="0" />
        <mxCell id="X8eHC92NmCe0IxZQ42kq-1" value="" style="group" vertex="1" connectable="0" parent="1">
          <mxGeometry x="149" y="90" width="530" height="110" as="geometry" />
        </mxCell>
        <mxCell id="TUHf5ocLs9GJW1kyD5Yq-9" value="" style="endArrow=classic;html=1;rounded=0;" parent="X8eHC92NmCe0IxZQ42kq-1" edge="1">
          <mxGeometry width="50" height="50" relative="1" as="geometry">
            <mxPoint x="200" y="110" as="sourcePoint" />
            <mxPoint x="200" y="70" as="targetPoint" />
          </mxGeometry>
        </mxCell>
        <mxCell id="TUHf5ocLs9GJW1kyD5Yq-10" value="point" style="edgeLabel;html=1;align=center;verticalAlign=middle;resizable=0;points=[];" parent="TUHf5ocLs9GJW1kyD5Yq-9" vertex="1" connectable="0">
          <mxGeometry x="-0.4929" y="-1" relative="1" as="geometry">
            <mxPoint x="-1" y="20" as="offset" />
          </mxGeometry>
        </mxCell>
        <mxCell id="TUHf5ocLs9GJW1kyD5Yq-11" value="" style="endArrow=classic;html=1;rounded=0;dashed=1;" parent="X8eHC92NmCe0IxZQ42kq-1" edge="1">
          <mxGeometry relative="1" as="geometry">
            <mxPoint x="200" y="110" as="sourcePoint" />
            <mxPoint x="320" y="110" as="targetPoint" />
          </mxGeometry>
        </mxCell>
        <mxCell id="TUHf5ocLs9GJW1kyD5Yq-12" value="Normal" style="edgeLabel;resizable=0;html=1;align=center;verticalAlign=middle;" parent="TUHf5ocLs9GJW1kyD5Yq-11" connectable="0" vertex="1">
          <mxGeometry relative="1" as="geometry" />
        </mxCell>
        <mxCell id="TUHf5ocLs9GJW1kyD5Yq-13" value="" style="endArrow=classic;html=1;rounded=0;dashed=1;" parent="X8eHC92NmCe0IxZQ42kq-1" edge="1">
          <mxGeometry relative="1" as="geometry">
            <mxPoint x="200" y="110" as="sourcePoint" />
            <mxPoint x="80" y="110" as="targetPoint" />
          </mxGeometry>
        </mxCell>
        <mxCell id="TUHf5ocLs9GJW1kyD5Yq-14" value="Reverse" style="edgeLabel;resizable=0;html=1;align=center;verticalAlign=middle;" parent="TUHf5ocLs9GJW1kyD5Yq-13" connectable="0" vertex="1">
          <mxGeometry relative="1" as="geometry" />
        </mxCell>
        <mxCell id="TUHf5ocLs9GJW1kyD5Yq-19" value="" style="group" parent="X8eHC92NmCe0IxZQ42kq-1" vertex="1" connectable="0">
          <mxGeometry x="195" width="50" height="40" as="geometry" />
        </mxCell>
        <mxCell id="TUHf5ocLs9GJW1kyD5Yq-16" value="" style="shape=crossbar;whiteSpace=wrap;html=1;rounded=1;" parent="TUHf5ocLs9GJW1kyD5Yq-19" vertex="1">
          <mxGeometry x="5" y="20" width="40" height="20" as="geometry" />
        </mxCell>
        <mxCell id="TUHf5ocLs9GJW1kyD5Yq-17" value="6Byte" style="text;html=1;align=center;verticalAlign=middle;resizable=0;points=[];autosize=1;strokeColor=none;fillColor=none;" parent="TUHf5ocLs9GJW1kyD5Yq-19" vertex="1">
          <mxGeometry width="50" height="30" as="geometry" />
        </mxCell>
        <mxCell id="TUHf5ocLs9GJW1kyD5Yq-21" value="" style="group" parent="X8eHC92NmCe0IxZQ42kq-1" vertex="1" connectable="0">
          <mxGeometry x="235" width="50" height="40" as="geometry" />
        </mxCell>
        <mxCell id="TUHf5ocLs9GJW1kyD5Yq-22" value="" style="shape=crossbar;whiteSpace=wrap;html=1;rounded=1;" parent="TUHf5ocLs9GJW1kyD5Yq-21" vertex="1">
          <mxGeometry x="5" y="20" width="40" height="20" as="geometry" />
        </mxCell>
        <mxCell id="TUHf5ocLs9GJW1kyD5Yq-23" value="6Byte" style="text;html=1;align=center;verticalAlign=middle;resizable=0;points=[];autosize=1;strokeColor=none;fillColor=none;" parent="TUHf5ocLs9GJW1kyD5Yq-21" vertex="1">
          <mxGeometry width="50" height="30" as="geometry" />
        </mxCell>
        <mxCell id="TUHf5ocLs9GJW1kyD5Yq-24" value="" style="group" parent="X8eHC92NmCe0IxZQ42kq-1" vertex="1" connectable="0">
          <mxGeometry x="275" width="50" height="40" as="geometry" />
        </mxCell>
        <mxCell id="TUHf5ocLs9GJW1kyD5Yq-25" value="" style="shape=crossbar;whiteSpace=wrap;html=1;rounded=1;" parent="TUHf5ocLs9GJW1kyD5Yq-24" vertex="1">
          <mxGeometry x="5" y="20" width="40" height="20" as="geometry" />
        </mxCell>
        <mxCell id="TUHf5ocLs9GJW1kyD5Yq-26" value="7Byte" style="text;html=1;align=center;verticalAlign=middle;resizable=0;points=[];autosize=1;strokeColor=none;fillColor=none;" parent="TUHf5ocLs9GJW1kyD5Yq-24" vertex="1">
          <mxGeometry width="50" height="30" as="geometry" />
        </mxCell>
        <mxCell id="TUHf5ocLs9GJW1kyD5Yq-28" value="" style="shape=crossbar;whiteSpace=wrap;html=1;rounded=1;" parent="X8eHC92NmCe0IxZQ42kq-1" vertex="1">
          <mxGeometry x="160" y="20" width="39.5" height="20" as="geometry" />
        </mxCell>
        <mxCell id="TUHf5ocLs9GJW1kyD5Yq-29" value="5Byte" style="text;html=1;align=center;verticalAlign=middle;resizable=0;points=[];autosize=1;strokeColor=none;fillColor=none;" parent="X8eHC92NmCe0IxZQ42kq-1" vertex="1">
          <mxGeometry x="154.75" width="50" height="30" as="geometry" />
        </mxCell>
        <mxCell id="TUHf5ocLs9GJW1kyD5Yq-1" value="变长字段表" style="rounded=0;whiteSpace=wrap;html=1;fillColor=#f8cecc;strokeColor=#b85450;" parent="X8eHC92NmCe0IxZQ42kq-1" vertex="1">
          <mxGeometry y="40" width="80" height="30" as="geometry" />
        </mxCell>
        <mxCell id="TUHf5ocLs9GJW1kyD5Yq-2" value="NULL字段表" style="rounded=0;whiteSpace=wrap;html=1;fillColor=#d5e8d4;strokeColor=#82b366;" parent="X8eHC92NmCe0IxZQ42kq-1" vertex="1">
          <mxGeometry x="80" y="40" width="80" height="30" as="geometry" />
        </mxCell>
        <mxCell id="TUHf5ocLs9GJW1kyD5Yq-3" value="&lt;font style=&quot;font-size: 9px;&quot;&gt;头信息&lt;/font&gt;" style="rounded=0;whiteSpace=wrap;html=1;fillColor=#fff2cc;strokeColor=#d6b656;" parent="X8eHC92NmCe0IxZQ42kq-1" vertex="1">
          <mxGeometry x="160" y="40" width="39.5" height="30" as="geometry" />
        </mxCell>
        <mxCell id="TUHf5ocLs9GJW1kyD5Yq-4" value="row_id" style="rounded=0;whiteSpace=wrap;html=1;fillColor=#dae8fc;strokeColor=#6c8ebf;" parent="X8eHC92NmCe0IxZQ42kq-1" vertex="1">
          <mxGeometry x="200" y="40" width="40" height="30" as="geometry" />
        </mxCell>
        <mxCell id="TUHf5ocLs9GJW1kyD5Yq-5" value="trx_id" style="rounded=0;whiteSpace=wrap;html=1;fillColor=#dae8fc;strokeColor=#6c8ebf;" parent="X8eHC92NmCe0IxZQ42kq-1" vertex="1">
          <mxGeometry x="240" y="40" width="40" height="30" as="geometry" />
        </mxCell>
        <mxCell id="TUHf5ocLs9GJW1kyD5Yq-6" value="roll_ptr" style="rounded=0;whiteSpace=wrap;html=1;fillColor=#dae8fc;strokeColor=#6c8ebf;" parent="X8eHC92NmCe0IxZQ42kq-1" vertex="1">
          <mxGeometry x="280" y="40" width="40" height="30" as="geometry" />
        </mxCell>
        <mxCell id="TUHf5ocLs9GJW1kyD5Yq-7" value="Data" style="rounded=0;whiteSpace=wrap;html=1;fillColor=#f5f5f5;fontColor=#333333;strokeColor=#666666;" parent="X8eHC92NmCe0IxZQ42kq-1" vertex="1">
          <mxGeometry x="320" y="40" width="210" height="30" as="geometry" />
        </mxCell>
        <mxCell id="X8eHC92NmCe0IxZQ42kq-47" value="" style="edgeStyle=orthogonalEdgeStyle;rounded=0;orthogonalLoop=1;jettySize=auto;html=1;" edge="1" parent="1" source="X8eHC92NmCe0IxZQ42kq-2">
          <mxGeometry relative="1" as="geometry">
            <mxPoint x="97" y="280" as="targetPoint" />
          </mxGeometry>
        </mxCell>
        <mxCell id="X8eHC92NmCe0IxZQ42kq-2" value="" style="rounded=0;whiteSpace=wrap;html=1;fillColor=#1ba1e2;strokeColor=#006EAF;fontColor=#ffffff;" vertex="1" parent="1">
          <mxGeometry x="87" y="230" width="20" height="20" as="geometry" />
        </mxCell>
        <mxCell id="X8eHC92NmCe0IxZQ42kq-3" value="" style="rounded=0;whiteSpace=wrap;html=1;fillColor=#60a917;fontColor=#ffffff;strokeColor=#2D7600;" vertex="1" parent="1">
          <mxGeometry x="107" y="230" width="20" height="20" as="geometry" />
        </mxCell>
        <mxCell id="X8eHC92NmCe0IxZQ42kq-4" value="" style="rounded=0;whiteSpace=wrap;html=1;fillColor=#f0a30a;fontColor=#000000;strokeColor=#BD7000;" vertex="1" parent="1">
          <mxGeometry x="147" y="230" width="20" height="20" as="geometry" />
        </mxCell>
        <mxCell id="X8eHC92NmCe0IxZQ42kq-5" value="" style="rounded=0;whiteSpace=wrap;html=1;fillColor=#647687;fontColor=#ffffff;strokeColor=#314354;" vertex="1" parent="1">
          <mxGeometry x="127" y="230" width="20" height="20" as="geometry" />
        </mxCell>
        <mxCell id="X8eHC92NmCe0IxZQ42kq-7" value="" style="rounded=0;whiteSpace=wrap;html=1;fillColor=#00FFFF;fontColor=#ffffff;strokeColor=#2D7600;" vertex="1" parent="1">
          <mxGeometry x="187" y="230" width="20" height="20" as="geometry" />
        </mxCell>
        <mxCell id="X8eHC92NmCe0IxZQ42kq-10" value="" style="rounded=0;whiteSpace=wrap;html=1;fillColor=#00FFFF;fontColor=#ffffff;strokeColor=#2D7600;" vertex="1" parent="1">
          <mxGeometry x="207" y="230" width="20" height="20" as="geometry" />
        </mxCell>
        <mxCell id="X8eHC92NmCe0IxZQ42kq-11" value="" style="rounded=0;whiteSpace=wrap;html=1;fillColor=#00FFFF;fontColor=#ffffff;strokeColor=#2D7600;" vertex="1" parent="1">
          <mxGeometry x="167" y="230" width="20" height="20" as="geometry" />
        </mxCell>
        <mxCell id="X8eHC92NmCe0IxZQ42kq-12" value="" style="rounded=0;whiteSpace=wrap;html=1;fillColor=#00FFFF;fontColor=#ffffff;strokeColor=#2D7600;" vertex="1" parent="1">
          <mxGeometry x="227" y="230" width="20" height="20" as="geometry" />
        </mxCell>
        <mxCell id="X8eHC92NmCe0IxZQ42kq-13" value="" style="rounded=0;whiteSpace=wrap;html=1;fillColor=#0050ef;strokeColor=#001DBC;fontColor=#ffffff;" vertex="1" parent="1">
          <mxGeometry x="247" y="230" width="20" height="20" as="geometry" />
        </mxCell>
        <mxCell id="X8eHC92NmCe0IxZQ42kq-14" value="" style="rounded=0;whiteSpace=wrap;html=1;fillColor=#0050ef;strokeColor=#001DBC;fontColor=#ffffff;" vertex="1" parent="1">
          <mxGeometry x="267" y="230" width="20" height="20" as="geometry" />
        </mxCell>
        <mxCell id="X8eHC92NmCe0IxZQ42kq-15" value="" style="rounded=0;whiteSpace=wrap;html=1;fillColor=#0050ef;strokeColor=#001DBC;fontColor=#ffffff;" vertex="1" parent="1">
          <mxGeometry x="287" y="230" width="20" height="20" as="geometry" />
        </mxCell>
        <mxCell id="X8eHC92NmCe0IxZQ42kq-17" value="" style="rounded=0;whiteSpace=wrap;html=1;fillColor=#0050ef;strokeColor=#001DBC;fontColor=#ffffff;" vertex="1" parent="1">
          <mxGeometry x="307" y="230" width="20" height="20" as="geometry" />
        </mxCell>
        <mxCell id="X8eHC92NmCe0IxZQ42kq-18" value="" style="rounded=0;whiteSpace=wrap;html=1;fillColor=#0050ef;strokeColor=#001DBC;fontColor=#ffffff;" vertex="1" parent="1">
          <mxGeometry x="327" y="230" width="20" height="20" as="geometry" />
        </mxCell>
        <mxCell id="X8eHC92NmCe0IxZQ42kq-19" value="" style="rounded=0;whiteSpace=wrap;html=1;fillColor=#0050ef;strokeColor=#001DBC;fontColor=#ffffff;" vertex="1" parent="1">
          <mxGeometry x="347" y="230" width="20" height="20" as="geometry" />
        </mxCell>
        <mxCell id="X8eHC92NmCe0IxZQ42kq-20" value="" style="rounded=0;whiteSpace=wrap;html=1;fillColor=#0050ef;strokeColor=#001DBC;fontColor=#ffffff;" vertex="1" parent="1">
          <mxGeometry x="367" y="230" width="20" height="20" as="geometry" />
        </mxCell>
        <mxCell id="X8eHC92NmCe0IxZQ42kq-21" value="" style="rounded=0;whiteSpace=wrap;html=1;fillColor=#0050ef;strokeColor=#001DBC;fontColor=#ffffff;" vertex="1" parent="1">
          <mxGeometry x="387" y="230" width="20" height="20" as="geometry" />
        </mxCell>
        <mxCell id="X8eHC92NmCe0IxZQ42kq-22" value="" style="rounded=0;whiteSpace=wrap;html=1;fillColor=#0050ef;strokeColor=#001DBC;fontColor=#ffffff;" vertex="1" parent="1">
          <mxGeometry x="407" y="230" width="20" height="20" as="geometry" />
        </mxCell>
        <mxCell id="X8eHC92NmCe0IxZQ42kq-23" value="" style="rounded=0;whiteSpace=wrap;html=1;fillColor=#0050ef;strokeColor=#001DBC;fontColor=#ffffff;" vertex="1" parent="1">
          <mxGeometry x="427" y="230" width="20" height="20" as="geometry" />
        </mxCell>
        <mxCell id="X8eHC92NmCe0IxZQ42kq-24" value="" style="rounded=0;whiteSpace=wrap;html=1;fillColor=#0050ef;strokeColor=#001DBC;fontColor=#ffffff;" vertex="1" parent="1">
          <mxGeometry x="447" y="230" width="20" height="20" as="geometry" />
        </mxCell>
        <mxCell id="X8eHC92NmCe0IxZQ42kq-25" value="" style="rounded=0;whiteSpace=wrap;html=1;fillColor=#0050ef;strokeColor=#001DBC;fontColor=#ffffff;" vertex="1" parent="1">
          <mxGeometry x="467" y="230" width="20" height="20" as="geometry" />
        </mxCell>
        <mxCell id="X8eHC92NmCe0IxZQ42kq-26" value="" style="rounded=0;whiteSpace=wrap;html=1;fillColor=#0050ef;strokeColor=#001DBC;fontColor=#ffffff;" vertex="1" parent="1">
          <mxGeometry x="487" y="230" width="20" height="20" as="geometry" />
        </mxCell>
        <mxCell id="X8eHC92NmCe0IxZQ42kq-27" value="" style="rounded=0;whiteSpace=wrap;html=1;fillColor=#1ba1e2;strokeColor=#006EAF;fontColor=#ffffff;" vertex="1" parent="1">
          <mxGeometry x="567" y="230" width="20" height="20" as="geometry" />
        </mxCell>
        <mxCell id="X8eHC92NmCe0IxZQ42kq-28" value="" style="rounded=0;whiteSpace=wrap;html=1;fillColor=#1ba1e2;strokeColor=#006EAF;fontColor=#ffffff;" vertex="1" parent="1">
          <mxGeometry x="587" y="230" width="20" height="20" as="geometry" />
        </mxCell>
        <mxCell id="X8eHC92NmCe0IxZQ42kq-29" value="" style="rounded=0;whiteSpace=wrap;html=1;fillColor=#1ba1e2;strokeColor=#006EAF;fontColor=#ffffff;" vertex="1" parent="1">
          <mxGeometry x="607" y="230" width="20" height="20" as="geometry" />
        </mxCell>
        <mxCell id="X8eHC92NmCe0IxZQ42kq-30" value="" style="rounded=0;whiteSpace=wrap;html=1;fillColor=#1ba1e2;strokeColor=#006EAF;fontColor=#ffffff;" vertex="1" parent="1">
          <mxGeometry x="627" y="230" width="20" height="20" as="geometry" />
        </mxCell>
        <mxCell id="X8eHC92NmCe0IxZQ42kq-31" value="" style="rounded=0;whiteSpace=wrap;html=1;fillColor=#1ba1e2;strokeColor=#006EAF;fontColor=#ffffff;" vertex="1" parent="1">
          <mxGeometry x="647" y="230" width="20" height="20" as="geometry" />
        </mxCell>
        <mxCell id="X8eHC92NmCe0IxZQ42kq-32" value="" style="rounded=0;whiteSpace=wrap;html=1;fillColor=#1ba1e2;strokeColor=#006EAF;fontColor=#ffffff;" vertex="1" parent="1">
          <mxGeometry x="667" y="230" width="20" height="20" as="geometry" />
        </mxCell>
        <mxCell id="X8eHC92NmCe0IxZQ42kq-33" value="" style="rounded=0;whiteSpace=wrap;html=1;fillColor=#1ba1e2;strokeColor=#006EAF;fontColor=#ffffff;" vertex="1" parent="1">
          <mxGeometry x="687" y="230" width="20" height="20" as="geometry" />
        </mxCell>
        <mxCell id="X8eHC92NmCe0IxZQ42kq-34" value="" style="rounded=0;whiteSpace=wrap;html=1;fillColor=#1ba1e2;strokeColor=#006EAF;fontColor=#ffffff;" vertex="1" parent="1">
          <mxGeometry x="707" y="230" width="20" height="20" as="geometry" />
        </mxCell>
        <mxCell id="X8eHC92NmCe0IxZQ42kq-35" value="" style="rounded=0;whiteSpace=wrap;html=1;fillColor=#1ba1e2;strokeColor=#006EAF;fontColor=#ffffff;" vertex="1" parent="1">
          <mxGeometry x="727" y="230" width="20" height="20" as="geometry" />
        </mxCell>
        <mxCell id="X8eHC92NmCe0IxZQ42kq-36" value="" style="rounded=0;whiteSpace=wrap;html=1;fillColor=#1ba1e2;strokeColor=#006EAF;fontColor=#ffffff;" vertex="1" parent="1">
          <mxGeometry x="747" y="230" width="20" height="20" as="geometry" />
        </mxCell>
        <mxCell id="X8eHC92NmCe0IxZQ42kq-37" value="" style="rounded=0;whiteSpace=wrap;html=1;fillColor=#1ba1e2;strokeColor=#006EAF;fontColor=#ffffff;" vertex="1" parent="1">
          <mxGeometry x="767" y="230" width="20" height="20" as="geometry" />
        </mxCell>
        <mxCell id="X8eHC92NmCe0IxZQ42kq-38" value="" style="rounded=0;whiteSpace=wrap;html=1;fillColor=#1ba1e2;strokeColor=#006EAF;fontColor=#ffffff;" vertex="1" parent="1">
          <mxGeometry x="787" y="230" width="20" height="20" as="geometry" />
        </mxCell>
        <mxCell id="X8eHC92NmCe0IxZQ42kq-39" value="" style="rounded=0;whiteSpace=wrap;html=1;fillColor=#1ba1e2;strokeColor=#006EAF;fontColor=#ffffff;" vertex="1" parent="1">
          <mxGeometry x="807" y="230" width="20" height="20" as="geometry" />
        </mxCell>
        <mxCell id="X8eHC92NmCe0IxZQ42kq-40" value="" style="rounded=0;whiteSpace=wrap;html=1;fillColor=#fa6800;fontColor=#000000;strokeColor=#C73500;" vertex="1" parent="1">
          <mxGeometry x="527" y="230" width="20" height="20" as="geometry" />
        </mxCell>
        <mxCell id="X8eHC92NmCe0IxZQ42kq-41" value="" style="rounded=0;whiteSpace=wrap;html=1;fillColor=#fa6800;fontColor=#000000;strokeColor=#C73500;" vertex="1" parent="1">
          <mxGeometry x="547" y="230" width="20" height="20" as="geometry" />
        </mxCell>
        <mxCell id="X8eHC92NmCe0IxZQ42kq-42" value="" style="rounded=0;whiteSpace=wrap;html=1;fillColor=#fa6800;fontColor=#000000;strokeColor=#C73500;" vertex="1" parent="1">
          <mxGeometry x="507" y="230" width="20" height="20" as="geometry" />
        </mxCell>
        <mxCell id="X8eHC92NmCe0IxZQ42kq-43" style="edgeStyle=orthogonalEdgeStyle;rounded=0;orthogonalLoop=1;jettySize=auto;html=1;entryX=0.075;entryY=-0.2;entryDx=0;entryDy=0;entryPerimeter=0;fillColor=#f0a30a;strokeColor=#BD7000;jumpStyle=none;jumpSize=7;strokeWidth=3;" edge="1" parent="1" source="TUHf5ocLs9GJW1kyD5Yq-3" target="X8eHC92NmCe0IxZQ42kq-18">
          <mxGeometry relative="1" as="geometry" />
        </mxCell>
        <mxCell id="X8eHC92NmCe0IxZQ42kq-49" value="" style="edgeStyle=orthogonalEdgeStyle;rounded=0;orthogonalLoop=1;jettySize=auto;html=1;" edge="1" parent="1">
          <mxGeometry relative="1" as="geometry">
            <mxPoint x="117" y="250" as="sourcePoint" />
            <mxPoint x="117" y="280" as="targetPoint" />
          </mxGeometry>
        </mxCell>
        <mxCell id="X8eHC92NmCe0IxZQ42kq-50" value="&lt;font style=&quot;font-size: 8px;&quot;&gt;预留位&lt;/font&gt;" style="rounded=0;whiteSpace=wrap;html=1;strokeColor=none;" vertex="1" parent="1">
          <mxGeometry x="89" y="280" width="33" height="20" as="geometry" />
        </mxCell>
        <mxCell id="X8eHC92NmCe0IxZQ42kq-51" value="" style="edgeStyle=orthogonalEdgeStyle;rounded=0;orthogonalLoop=1;jettySize=auto;html=1;exitX=0.5;exitY=1;exitDx=0;exitDy=0;entryX=0.5;entryY=0;entryDx=0;entryDy=0;" edge="1" parent="1" source="X8eHC92NmCe0IxZQ42kq-5" target="X8eHC92NmCe0IxZQ42kq-52">
          <mxGeometry relative="1" as="geometry">
            <mxPoint x="137" y="270" as="sourcePoint" />
            <mxPoint x="137" y="300" as="targetPoint" />
          </mxGeometry>
        </mxCell>
        <mxCell id="X8eHC92NmCe0IxZQ42kq-53" value="" style="edgeStyle=orthogonalEdgeStyle;rounded=0;orthogonalLoop=1;jettySize=auto;html=1;exitX=0.5;exitY=1;exitDx=0;exitDy=0;entryX=0.5;entryY=0;entryDx=0;entryDy=0;" edge="1" parent="1" target="X8eHC92NmCe0IxZQ42kq-54">
          <mxGeometry relative="1" as="geometry">
            <mxPoint x="157" y="250" as="sourcePoint" />
            <mxPoint x="157" y="300" as="targetPoint" />
          </mxGeometry>
        </mxCell>
        <mxCell id="X8eHC92NmCe0IxZQ42kq-54" value="&lt;font style=&quot;font-size: 7px;&quot;&gt;min_rec_mask&lt;/font&gt;" style="rounded=0;whiteSpace=wrap;html=1;strokeColor=none;" vertex="1" parent="1">
          <mxGeometry x="132.12" y="330" width="49.75" height="20" as="geometry" />
        </mxCell>
        <mxCell id="X8eHC92NmCe0IxZQ42kq-52" value="&lt;font style=&quot;font-size: 7px;&quot;&gt;delete_mask&lt;/font&gt;" style="rounded=0;whiteSpace=wrap;html=1;strokeColor=none;labelBackgroundColor=none;opacity=0;" vertex="1" parent="1">
          <mxGeometry x="112.12" y="300" width="49.75" height="20" as="geometry" />
        </mxCell>
        <mxCell id="X8eHC92NmCe0IxZQ42kq-55" value="" style="edgeStyle=orthogonalEdgeStyle;rounded=0;orthogonalLoop=1;jettySize=auto;html=1;exitX=0.5;exitY=1;exitDx=0;exitDy=0;entryX=0.5;entryY=0;entryDx=0;entryDy=0;" edge="1" parent="1" target="X8eHC92NmCe0IxZQ42kq-56">
          <mxGeometry relative="1" as="geometry">
            <mxPoint x="206.75" y="250" as="sourcePoint" />
            <mxPoint x="206.75" y="300" as="targetPoint" />
          </mxGeometry>
        </mxCell>
        <mxCell id="X8eHC92NmCe0IxZQ42kq-56" value="&lt;font style=&quot;font-size: 7px;&quot;&gt;n_owned&lt;/font&gt;" style="rounded=0;whiteSpace=wrap;html=1;strokeColor=none;labelBackgroundColor=none;opacity=0;" vertex="1" parent="1">
          <mxGeometry x="181.87" y="270" width="49.75" height="20" as="geometry" />
        </mxCell>
        <mxCell id="X8eHC92NmCe0IxZQ42kq-57" value="" style="edgeStyle=orthogonalEdgeStyle;rounded=0;orthogonalLoop=1;jettySize=auto;html=1;exitX=0.5;exitY=1;exitDx=0;exitDy=0;entryX=0.5;entryY=0;entryDx=0;entryDy=0;" edge="1" parent="1" target="X8eHC92NmCe0IxZQ42kq-58">
          <mxGeometry relative="1" as="geometry">
            <mxPoint x="377.01" y="250" as="sourcePoint" />
            <mxPoint x="377.01" y="300" as="targetPoint" />
          </mxGeometry>
        </mxCell>
        <mxCell id="X8eHC92NmCe0IxZQ42kq-58" value="&lt;font style=&quot;font-size: 7px;&quot;&gt;heap_no&lt;/font&gt;" style="rounded=0;whiteSpace=wrap;html=1;strokeColor=none;labelBackgroundColor=none;opacity=0;" vertex="1" parent="1">
          <mxGeometry x="352.13" y="270" width="49.75" height="20" as="geometry" />
        </mxCell>
        <mxCell id="X8eHC92NmCe0IxZQ42kq-59" value="" style="edgeStyle=orthogonalEdgeStyle;rounded=0;orthogonalLoop=1;jettySize=auto;html=1;exitX=0.5;exitY=1;exitDx=0;exitDy=0;entryX=0.5;entryY=0;entryDx=0;entryDy=0;" edge="1" parent="1" target="X8eHC92NmCe0IxZQ42kq-60">
          <mxGeometry relative="1" as="geometry">
            <mxPoint x="537.01" y="250" as="sourcePoint" />
            <mxPoint x="537.01" y="300" as="targetPoint" />
          </mxGeometry>
        </mxCell>
        <mxCell id="X8eHC92NmCe0IxZQ42kq-60" value="&lt;font style=&quot;font-size: 7px;&quot;&gt;record_type&lt;/font&gt;" style="rounded=0;whiteSpace=wrap;html=1;strokeColor=none;labelBackgroundColor=none;opacity=0;" vertex="1" parent="1">
          <mxGeometry x="512.13" y="270" width="49.75" height="20" as="geometry" />
        </mxCell>
        <mxCell id="X8eHC92NmCe0IxZQ42kq-61" value="" style="edgeStyle=orthogonalEdgeStyle;rounded=0;orthogonalLoop=1;jettySize=auto;html=1;exitX=0.5;exitY=1;exitDx=0;exitDy=0;entryX=0.5;entryY=0;entryDx=0;entryDy=0;" edge="1" parent="1" target="X8eHC92NmCe0IxZQ42kq-62">
          <mxGeometry relative="1" as="geometry">
            <mxPoint x="711.88" y="250" as="sourcePoint" />
            <mxPoint x="711.88" y="300" as="targetPoint" />
          </mxGeometry>
        </mxCell>
        <mxCell id="X8eHC92NmCe0IxZQ42kq-62" value="&lt;font style=&quot;font-size: 7px;&quot;&gt;next_record&lt;/font&gt;" style="rounded=0;whiteSpace=wrap;html=1;strokeColor=none;labelBackgroundColor=none;opacity=0;" vertex="1" parent="1">
          <mxGeometry x="687" y="270" width="49.75" height="20" as="geometry" />
        </mxCell>
      </root>
    </mxGraphModel>
  </diagram>
</mxfile>
